<?xml version="1.0" encoding="UTF-8" standalone="no"?>
<!-- Created with Inkscape (http://www.inkscape.org/) -->

<svg
   width="23.187538mm"
   height="23.187538mm"
   viewBox="0 0 23.187538 23.187538"
   version="1.1"
   id="svg1"
   xml:space="preserve"
   xmlns:inkscape="http://www.inkscape.org/namespaces/inkscape"
   xmlns:sodipodi="http://sodipodi.sourceforge.net/DTD/sodipodi-0.dtd"
   xmlns:xlink="http://www.w3.org/1999/xlink"
   xmlns="http://www.w3.org/2000/svg"
   xmlns:svg="http://www.w3.org/2000/svg"><sodipodi:namedview
     id="namedview1"
     pagecolor="#ffffff"
     bordercolor="#999999"
     borderopacity="1"
     inkscape:showpageshadow="2"
     inkscape:pageopacity="0"
     inkscape:pagecheckerboard="0"
     inkscape:deskcolor="#d1d1d1"
     inkscape:document-units="mm" /><defs
     id="defs1"><linearGradient
       id="linearGradient94"
       inkscape:collect="always"><stop
         style="stop-color:#003035;stop-opacity:0.67721522;"
         offset="0"
         id="stop94" /><stop
         style="stop-color:#f2f2f2;stop-opacity:0;"
         offset="1"
         id="stop95" /></linearGradient><style
       id="style1">.cls-1{fill:none;stroke:#000;stroke-miterlimit:10;stroke-width:2px;}</style><linearGradient
       inkscape:collect="always"
       xlink:href="#linearGradient94"
       id="linearGradient95"
       x1="1.0020556"
       y1="40.491646"
       x2="80.132927"
       y2="40.491646"
       gradientUnits="userSpaceOnUse"
       gradientTransform="matrix(0.26458333,0,0,0.26458333,69.615566,91.422592)" /><style
       id="style1-9">.cls-1{fill:none;stroke:#000;stroke-linecap:round;stroke-linejoin:round;stroke-width:2px;}</style></defs><g
     inkscape:label="Layer 1"
     inkscape:groupmode="layer"
     id="layer1"
     transform="translate(-68.416467,-91.204206)"><g
       id="g5"><circle
         style="opacity:0.998;fill:#000000;fill-opacity:0.997669;stroke:#ffffff;stroke-width:1.919;stroke-linejoin:round;stroke-miterlimit:4.9;stroke-opacity:0.984694"
         id="path5"
         cx="80.010231"
         cy="102.79797"
         r="10.634271" /><path
         style="display:inline;fill:#f2f2f2;fill-opacity:1;stroke:#000000;stroke-width:0.0124836;stroke-miterlimit:4;stroke-dasharray:none;stroke-opacity:0"
         d="m 78.844077,112.50814 c -1.22833,-0.21844 -2.06968,-0.47618 -3.01518,-0.92365 -2.09654,-0.99223 -3.80748,-2.64095 -4.825526,-4.65004 -0.566299,-1.11758 -0.880571,-2.08337 -1.065517,-3.27446 -0.06487,-0.41775 -0.07435,-0.6055 -0.07425,-1.46981 1.19e-4,-1.05153 0.02681,-1.38641 0.163075,-2.04564 0.34646,-1.676178 1.056608,-3.199448 2.110518,-4.527068 0.30958,-0.38998 1.06681,-1.15529 1.49227,-1.50819 1.2978,-1.07646 2.96269,-1.85981 4.68614,-2.20487 0.68275,-0.1367 1.05163,-0.16805 1.97701,-0.16802 1.12942,4e-5 1.60583,0.0515 2.48196,0.26793 1.26946,0.31364 2.22962,0.73105 3.31007,1.43896 0.98385,0.64463 2.01599,1.64039 2.767,2.66948 1.07992,1.4798 1.76031,3.34584 1.90281,5.218648 0.0452,0.59359 0.0202,1.62419 -0.0528,2.17742 -0.11956,0.90615 -0.40645,1.93056 -0.79156,2.82654 -0.3072,0.71469 -0.87777,1.66833 -1.35367,2.26252 -0.45194,0.56426 -1.38654,1.4769 -1.95259,1.90672 -0.59639,0.45285 -1.77042,1.09771 -2.55873,1.40541 -0.70337,0.27456 -1.72102,0.53161 -2.37888,0.60089 -0.38112,0.0401 -2.59305,0.038 -2.82211,-0.003 z m 3.50869,-0.41258 c -0.011,-0.011 -0.0395,-0.0121 -0.0633,-0.003 -0.0264,0.0105 -0.0185,0.0184 0.02,0.02 0.0348,0.001 0.0543,-0.006 0.0434,-0.0173 z m 0.16515,-0.033 c -0.011,-0.011 -0.0395,-0.0121 -0.0633,-0.003 -0.0263,0.0105 -0.0185,0.0184 0.02,0.0199 0.0348,0.001 0.0543,-0.006 0.0434,-0.0173 z m 0.13212,-0.033 c -0.011,-0.011 -0.0395,-0.0121 -0.0633,-0.003 -0.0264,0.0105 -0.0185,0.0184 0.0199,0.0199 0.0348,0.001 0.0543,-0.006 0.0434,-0.0173 z m 0.13211,-0.033 c -0.011,-0.011 -0.0395,-0.0122 -0.0633,-0.003 -0.0264,0.0105 -0.0185,0.0184 0.0199,0.0199 0.0348,0.001 0.0543,-0.006 0.0434,-0.0173 z m 0.13212,-0.033 c -0.011,-0.011 -0.0395,-0.0121 -0.0633,-0.003 -0.0263,0.0105 -0.0185,0.0184 0.02,0.0199 0.0348,0.001 0.0543,-0.006 0.0434,-0.0173 z m 0.43628,-0.11473 c 2.30985,-0.69104 4.50961,-2.43058 5.72762,-4.52932 0.36305,-0.62558 0.92528,-1.87489 0.86906,-1.93112 -0.008,-0.008 -0.0409,0.064 -0.0726,0.1605 -0.0993,0.30298 -0.4384,1.05225 -0.64754,1.43066 -0.26608,0.48143 -0.62833,1.02671 -0.95924,1.44391 -0.3397,0.42828 -1.1951,1.28392 -1.63228,1.63275 -0.93552,0.74645 -1.99806,1.32236 -3.15918,1.71232 -0.59199,0.19882 -0.65376,0.23822 -0.12588,0.0803 z m -2.55872,-1.08903 c 1.27192,-0.0865 2.33398,-0.38156 3.4462,-0.9574 0.78618,-0.40704 1.35685,-0.82351 2.03276,-1.48353 1.37553,-1.34317 2.22444,-3.00204 2.49639,-4.87823 0.39285,-2.71021 -0.49596,-5.396838 -2.42468,-7.329188 -2.7065,-2.71157 -6.8685,-3.29739 -10.23986,-1.44131 -1.17606,0.64748 -2.22636,1.61231 -2.98617,2.74317 -1.47981,2.20247 -1.8496,5.028708 -0.98804,7.551448 0.78703,2.30451 2.56564,4.20341 4.82291,5.14913 0.85832,0.3596 1.81193,0.58471 2.73499,0.64563 0.55807,0.0368 0.56812,0.0368 1.1055,2.9e-4 z m 9.32677,-5.87761 c 0,-0.0272 -0.02,0.002 -0.0445,0.0661 -0.0245,0.0636 -0.0445,0.13789 -0.0445,0.16514 0,0.0273 0.02,-0.002 0.0445,-0.0661 0.0245,-0.0636 0.0445,-0.13789 0.0445,-0.16514 z m 0.0276,-0.13831 c -0.0105,-0.0264 -0.0184,-0.0185 -0.02,0.0199 -0.001,0.0348 0.006,0.0543 0.0174,0.0434 0.011,-0.011 0.0122,-0.0395 0.003,-0.0633 z m 0.033,-0.13212 c -0.0105,-0.0263 -0.0184,-0.0185 -0.0199,0.02 -10e-4,0.0348 0.006,0.0543 0.0173,0.0433 0.011,-0.011 0.0122,-0.0395 0.003,-0.0633 z m 0.0661,-0.26424 c -0.0105,-0.0263 -0.0184,-0.0185 -0.02,0.02 -10e-4,0.0348 0.006,0.0543 0.0173,0.0434 0.011,-0.011 0.0121,-0.0395 0.003,-0.0633 z m 0.033,-0.13212 c -0.0105,-0.0264 -0.0184,-0.0185 -0.02,0.02 -0.001,0.0348 0.006,0.0543 0.0173,0.0434 0.011,-0.011 0.0122,-0.0395 0.003,-0.0633 z m 0.033,-0.16514 c -0.0105,-0.0264 -0.0184,-0.0185 -0.02,0.0199 -0.001,0.0348 0.006,0.0543 0.0173,0.0434 0.011,-0.011 0.0122,-0.0395 0.003,-0.0633 z m 0.033,-0.16515 c -0.0105,-0.0264 -0.0184,-0.0185 -0.02,0.02 -0.001,0.0348 0.006,0.0543 0.0174,0.0434 0.011,-0.011 0.0121,-0.0395 0.003,-0.0633 z m 0.033,-0.16515 c -0.0106,-0.0263 -0.0184,-0.0185 -0.02,0.02 -0.001,0.0348 0.006,0.0543 0.0174,0.0434 0.011,-0.011 0.0121,-0.0395 0.003,-0.0633 z"
         id="path93" /><path
         style="display:inline;fill:url(#linearGradient95);fill-opacity:1;stroke:#000000;stroke-width:0.0124836;stroke-miterlimit:4;stroke-dasharray:none;stroke-opacity:0"
         d="m 78.9133,112.52328 c -0.188607,-0.0275 -0.761064,-0.1489 -1.089964,-0.23118 -2.682725,-0.67117 -5.02218,-2.38446 -6.427565,-4.7072 -0.834318,-1.37891 -1.368034,-2.98214 -1.487036,-4.46691 -0.04178,-0.52132 -0.02008,-1.88384 0.03714,-2.33156 0.241467,-1.889428 1.151212,-3.930998 2.397314,-5.379858 0.378237,-0.43979 1.048124,-1.08881 1.474011,-1.4281 1.471221,-1.17209 3.456949,-1.99429 5.33871,-2.21054 0.228757,-0.0263 0.698167,-0.0339 1.420251,-0.0231 1.194884,0.0179 1.435141,0.0465 2.332798,0.27715 1.887068,0.48496 3.478469,1.39237 4.852913,2.76713 1.735498,1.73589 2.770012,3.90637 3.023772,6.344128 0.0533,0.51168 0.0174,2.01416 -0.0601,2.51841 -0.328517,2.13695 -1.296594,4.13866 -2.706835,5.59699 -1.044744,1.08037 -1.740351,1.60134 -2.970312,2.22464 -0.810727,0.41084 -1.367774,0.61904 -2.237628,0.83633 -0.835874,0.2088 -0.871444,0.21207 -2.394615,0.22042 -0.772057,0.004 -1.448334,0.001 -1.502834,-0.007 z m 4.741753,-0.76724 c 2.135448,-0.72977 4.075189,-2.25576 5.27529,-4.15007 0.22716,-0.35855 0.38539,-0.64304 0.35765,-0.64304 -0.008,0 -0.0698,0.0992 -0.1376,0.22041 -0.17831,0.31885 -0.601777,0.94101 -0.861634,1.26591 -0.29166,0.36467 -1.237884,1.31171 -1.597071,1.59846 -0.4451,0.35533 -1.198514,0.84192 -1.701001,1.0986 -0.544967,0.27837 -0.755657,0.36996 -1.288144,0.56 -0.217997,0.0778 -0.380557,0.14224 -0.361257,0.14321 0.0193,9.8e-4 0.1605,-0.0411 0.313767,-0.0935 z m -2.827042,-0.99635 c 1.271911,-0.0865 2.333965,-0.38156 3.446179,-0.9574 0.786177,-0.40704 1.356844,-0.82351 2.032748,-1.48353 1.375524,-1.34317 2.224428,-3.00204 2.496378,-4.87823 0.392847,-2.71021 -0.495957,-5.396838 -2.424668,-7.329188 -2.706485,-2.71157 -6.868461,-3.29739 -10.2398,-1.44131 -1.176054,0.64748 -2.226348,1.61231 -2.986155,2.74317 -1.479801,2.202471 -1.849591,5.028708 -0.988034,7.551448 0.787027,2.30451 2.565625,4.20341 4.822883,5.14913 0.858314,0.3596 1.811921,0.58471 2.734975,0.64563 0.558067,0.0368 0.568117,0.0368 1.105494,2.9e-4 z m 8.631749,-4.11141 c -0.0102,-0.0102 -0.0286,0.008 -0.041,0.0407 -0.0179,0.0471 -0.0141,0.0509 0.0185,0.0185 0.0226,-0.0224 0.0327,-0.0491 0.0225,-0.0592 z m 0.23525,-0.49457 c 0,-0.0182 -0.0212,0.004 -0.0472,0.0495 -0.026,0.0454 -0.0472,0.0974 -0.0472,0.11561 0,0.0182 0.0212,-0.004 0.0472,-0.0495 0.026,-0.0454 0.0472,-0.0974 0.0472,-0.1156 z m 0.10041,-0.23121 c 0,-0.0182 -0.0144,-0.0107 -0.032,0.0165 -0.0176,0.0273 -0.032,0.0644 -0.032,0.0826 0,0.0182 0.0144,0.0107 0.032,-0.0165 0.0176,-0.0273 0.032,-0.0644 0.032,-0.0826 z m 0.0661,-0.16514 c 0,-0.0182 -0.0144,-0.0107 -0.032,0.0165 -0.0176,0.0272 -0.032,0.0644 -0.032,0.0826 0,0.0182 0.0144,0.0107 0.032,-0.0165 0.0176,-0.0273 0.032,-0.0644 0.032,-0.0826 z m 0.0661,-0.16515 c 0,-0.0182 -0.0144,-0.0107 -0.032,0.0165 -0.0176,0.0273 -0.032,0.0644 -0.032,0.0826 0,0.0182 0.0144,0.0107 0.032,-0.0165 0.0176,-0.0272 0.032,-0.0644 0.032,-0.0826 z"
         id="path94" /><text
         xml:space="preserve"
         style="font-style:normal;font-variant:normal;font-weight:normal;font-stretch:normal;font-size:14.1111px;font-family:'Ink Free';-inkscape-font-specification:'Ink Free';text-align:center;letter-spacing:-0.396875px;text-anchor:middle;opacity:0.998;fill:#ff2a2a;fill-opacity:0.997669;stroke-width:1.919;stroke-linejoin:round;stroke-miterlimit:4.9;stroke-opacity:0.253049"
         x="80.263428"
         y="106.84911"
         id="text1"><tspan
           sodipodi:role="line"
           id="tspan1"
           style="font-style:normal;font-variant:normal;font-weight:normal;font-stretch:normal;font-size:14.1111px;font-family:'Ubuntu Mono';-inkscape-font-specification:'Ubuntu Mono';fill:#ffffff;fill-opacity:0.997669;stroke-width:1.919"
           x="80.064987"
           y="106.84911">J<tspan
   style="fill:#ff6600"
   id="tspan4">B</tspan></tspan></text></g></g></svg>
